HIERARCHY
ROOT Hips
{
	OFFSET 0.000000 0.000000 0.000000
	CHANNELS 6 Xposition Yposition Zposition Xrotation Yrotation Zrotation
	JOINT LeftUpLeg_virtual
	{
		OFFSET 0.000000 0.000000 0.000000
		CHANNELS 3 Xrotation Yrotation Zrotation
		JOINT LeftUpLeg
		{
			OFFSET 10.205400 -3.823500 0.155100
			CHANNELS 3 Xrotation Yrotation Zrotation
			JOINT LeftLeg
			{
				OFFSET 0.708757 -12.982077 0.567790
				CHANNELS 3 Xrotation Yrotation Zrotation
				JOINT LeftFoot
				{
					OFFSET -0.708756 -10.717838 -2.184338
					CHANNELS 3 Xrotation Yrotation Zrotation
					JOINT LeftToeBase
					{
						OFFSET 0.108149 -7.191104 7.560241
						CHANNELS 3 Xrotation Yrotation Zrotation
						JOINT LeftToe_End
						{
							OFFSET 0.070230 0.081724 4.490308
							CHANNELS 3 Xrotation Yrotation Zrotation
							End Site
							{
								OFFSET 0 0 0
							}
						}
					}
				}
			}
		}
	}
	JOINT RightUpLeg_virtual
	{
		OFFSET 0.000000 0.000000 0.000000
		CHANNELS 3 Xrotation Yrotation Zrotation
		JOINT RightUpLeg
		{
			OFFSET -10.205400 -3.823500 0.005500
			CHANNELS 3 Xrotation Yrotation Zrotation
			JOINT RightLeg
			{
				OFFSET -0.708756 -12.982134 0.610632
				CHANNELS 3 Xrotation Yrotation Zrotation
				JOINT RightFoot
				{
					OFFSET 0.708754 -10.717769 -1.945823
					CHANNELS 3 Xrotation Yrotation Zrotation
					JOINT RightToeBase
					{
						OFFSET -0.108140 -7.191069 7.372968
						CHANNELS 3 Xrotation Yrotation Zrotation
						JOINT RightToe_End
						{
							OFFSET -0.070227 0.081735 4.479403
							CHANNELS 3 Xrotation Yrotation Zrotation
							End Site
							{
								OFFSET 0 0 0
							}
						}
					}
				}
			}
		}
	}
	JOINT Spine_virtual
	{
		OFFSET 0.000000 0.000000 0.000000
		CHANNELS 3 Xrotation Yrotation Zrotation
		JOINT Spine
		{
			OFFSET 0.000000 6.876099 0.125700
			CHANNELS 3 Xrotation Yrotation Zrotation
			JOINT Spine1
			{
				OFFSET 0.000000 5.730043 0.104720
				CHANNELS 3 Xrotation Yrotation Zrotation
				JOINT Spine1_split
				{
					OFFSET 0.000000 5.730043 0.104720
					CHANNELS 3 Xrotation Yrotation Zrotation
					JOINT Spine2
					{
						OFFSET 0.000000 5.730043 0.104720
						CHANNELS 3 Xrotation Yrotation Zrotation
						JOINT Neck_virtual
						{
							OFFSET 0.000000 0.000000 0.000000
							CHANNELS 3 Xrotation Yrotation Zrotation
							JOINT Neck
							{
								OFFSET 0.000000 10.314075 0.188496
								CHANNELS 3 Xrotation Yrotation Zrotation
								JOINT Head
								{
									OFFSET 0.000000 7.643700 -2.377400
									CHANNELS 3 Xrotation Yrotation Zrotation
									JOINT HeadTop_End
									{
										OFFSET 0.000000 43.788605 -13.619600
										CHANNELS 3 Xrotation Yrotation Zrotation
										End Site
										{
											OFFSET 0 0 0
										}
									}
								}
							}
						}
						JOINT LeftShoulder_virtual
						{
							OFFSET 0.000000 0.000000 0.000000
							CHANNELS 3 Xrotation Yrotation Zrotation
							JOINT LeftShoulder
							{
								OFFSET 2.196100 4.412489 0.087492
								CHANNELS 3 Xrotation Yrotation Zrotation
								JOINT LeftShoulder_split
								{
									OFFSET 2.196100 4.412489 0.087492
									CHANNELS 3 Xrotation Yrotation Zrotation
									JOINT LeftArm
									{
										OFFSET 8.771219 -2.981674 -0.026999
										CHANNELS 3 Xrotation Yrotation Zrotation
										JOINT LeftForeArm
										{
											OFFSET 8.512804 0.000000 -0.000000
											CHANNELS 3 Xrotation Yrotation Zrotation
											JOINT LeftHand
											{
												OFFSET 18.484802 0.000000 -0.000000
												CHANNELS 3 Xrotation Yrotation Zrotation
												End Site
												{
													OFFSET 0 0 0
												}
											}
										}
									}
								}
							}
						}
						JOINT RightShoulder_virtual
						{
							OFFSET 0.000000 0.000000 0.000000
							CHANNELS 3 Xrotation Yrotation Zrotation
							JOINT RightShoulder
							{
								OFFSET -2.196100 4.412496 0.070690
								CHANNELS 3 Xrotation Yrotation Zrotation
								JOINT RightShoulder_split
								{
									OFFSET -2.196100 4.412496 0.070690
									CHANNELS 3 Xrotation Yrotation Zrotation
									JOINT RightArm
									{
										OFFSET -8.771282 -2.981682 -0.094208
										CHANNELS 3 Xrotation Yrotation Zrotation
										JOINT RightForeArm
										{
											OFFSET -8.494598 0.000000 0.000000
											CHANNELS 3 Xrotation Yrotation Zrotation
											JOINT RightHand
											{
												OFFSET -18.483803 0.000000 0.000001
												CHANNELS 3 Xrotation Yrotation Zrotation
												End Site
												{
													OFFSET 0 0 0
												}
											}
										}
									}
								}
							}
						}
					}
				}
			}
		}
	}
}
MOTION
Frames: 7
Frame Time: 0.03333333
0.123297 40.676193 1.517321 0.000000 0.000000 0.000000 7.729651 -40.053968 3.298801 -85.220762 -20.433457 27.031464 71.798559 -1.192767 5.138245 19.452225 2.329095 -0.794961 -2.094906 2.061524 -2.460135 0.000000 0.000000 0.000000 7.596113 -44.269332 2.802201 -115.096392 -40.931394 -0.203714 120.486586 27.371819 -16.594573 47.472519 10.146930 42.738939 9.167263 6.825044 -4.182165 0.000000 0.000000 0.000000 7.690819 -41.529012 2.428529 31.523403 -6.099023 -8.439435 12.958739 1.066909 -3.765867 0.519892 1.280246 1.152756 0.000000 0.000000 0.000000 12.859864 1.024974 -2.533829 -7.508949 18.230723 -13.580815 -26.804780 11.182729 4.966687 0.000000 0.000000 0.000000 14.079344 1.270377 -2.977116 13.095036 -17.847639 5.234521 1.320419 -4.221644 -3.191312 -59.050817 -10.081274 -6.325984 48.057061 -16.502693 29.648092 0.000000 0.000000 0.000000 14.828453 1.174834 -2.996179 18.673631 26.174065 -7.180919 0.284944 4.263737 2.356547 -35.813089 1.479258 8.474358 -43.121269 48.591410 33.175581 0.000000 0.000000 0.000000 
0.130431 40.675911 1.513144 0.000000 0.000000 0.000000 7.692726 -40.317118 3.416117 -85.066516 -20.334325 27.178142 71.677269 -1.268108 4.923790 19.250110 2.537568 -1.007233 -2.073462 2.054019 -2.487104 0.000000 0.000000 0.000000 7.617543 -44.525822 2.935138 -114.672920 -40.914858 -0.131841 120.165854 27.630064 -16.546632 47.156446 9.869993 42.359655 9.112441 6.853295 -4.424675 0.000000 0.000000 0.000000 7.607570 -41.658212 2.513433 31.500433 -6.111021 -8.477748 12.927446 1.081542 -3.752010 0.471659 1.275995 1.167044 0.000000 0.000000 0.000000 12.897705 1.027979 -2.542553 -7.512045 18.244567 -13.590085 -26.623162 11.273832 4.818610 0.000000 0.000000 0.000000 14.044608 1.285754 -2.956704 12.821420 -17.920000 4.544029 1.480646 -4.314432 -3.454322 -58.238277 -9.485863 -6.204185 47.913220 -16.406118 29.381821 0.000000 0.000000 0.000000 14.806250 1.156556 -3.007157 18.186396 26.571499 -6.174265 0.276547 4.352491 2.337330 -34.725454 1.346910 8.412072 -43.236269 48.340930 33.096754 0.000000 0.000000 0.000000 
0.130535 40.675461 1.515762 0.000000 0.000000 0.000000 7.734510 -40.486155 3.558607 -84.878235 -20.267606 27.260070 71.480819 -1.400928 4.694820 18.904415 2.813050 -1.195308 -2.069945 2.033123 -2.477105 0.000000 0.000000 0.000000 7.691475 -44.683856 3.081447 -114.262535 -40.830082 -0.053423 119.899231 27.860996 -16.510215 46.771110 9.605640 42.026260 9.028321 6.874052 -4.640452 0.000000 0.000000 0.000000 7.572235 -41.782535 2.625509 31.420007 -6.114595 -8.498149 12.879870 1.093241 -3.741846 0.442344 1.257671 1.185838 0.000000 0.000000 0.000000 12.911415 1.035252 -2.560576 -7.448294 18.254977 -13.615701 -26.399460 11.378025 4.700762 0.000000 0.000000 0.000000 14.003318 1.300880 -2.940958 12.594487 -17.913723 3.952370 1.545412 -4.424743 -3.736196 -57.318039 -8.655923 -5.930296 47.761891 -16.444652 29.184896 0.000000 0.000000 0.000000 14.771409 1.143946 -3.021004 17.741766 26.905334 -5.302993 0.265688 4.406682 2.391780 -33.784373 0.990041 8.234809 -43.319843 47.992252 32.964416 0.000000 0.000000 0.000000 
0.123546 40.678482 1.512119 0.000000 0.000000 0.000000 7.838217 -40.536360 3.722185 -84.654621 -20.244614 27.263267 71.225616 -1.569248 4.461270 18.461178 3.150587 -1.344015 -2.087152 2.002471 -2.433004 0.000000 0.000000 0.000000 7.803378 -44.751557 3.247325 -113.886636 -40.690162 -0.021950 119.673807 28.072241 -16.471703 46.326752 9.387338 41.753643 8.920930 6.891546 -4.826728 0.000000 0.000000 0.000000 7.570102 -41.891616 2.767742 31.298112 -6.119349 -8.504505 12.829178 1.100318 -3.737339 0.446949 1.253346 1.245123 0.000000 0.000000 0.000000 12.905734 1.046375 -2.586653 -7.353164 18.252936 -13.638108 -26.146459 11.478670 4.630692 0.000000 0.000000 0.000000 13.958348 1.315172 -2.932686 12.401898 -17.838987 3.409360 1.493773 -4.494836 -4.027177 -56.304600 -7.564966 -5.572169 47.679512 -16.665363 29.118094 0.000000 0.000000 0.000000 14.725227 1.137272 -3.034330 17.343592 27.175697 -4.536861 0.276625 4.423467 2.510445 -33.053761 0.603530 8.012395 -43.283274 47.512490 32.697215 0.000000 0.000000 0.000000 
0.108266 40.687050 1.506945 0.000000 0.000000 0.000000 7.960766 -40.498732 3.903454 -84.389303 -20.256586 27.208755 70.928318 -1.753165 4.222557 17.955830 3.541990 -1.450443 -2.123885 1.969520 -2.375241 0.000000 0.000000 0.000000 7.947092 -44.757127 3.440937 -113.559142 -40.514483 -0.083535 119.483300 28.270937 -16.405100 45.848912 9.229838 41.538560 8.783585 6.910299 -4.985765 0.000000 0.000000 0.000000 7.586639 -41.979220 2.925243 31.152271 -6.128245 -8.502799 12.775217 1.107913 -3.742762 0.478470 1.273868 1.264526 0.000000 0.000000 0.000000 12.875905 1.062678 -2.620433 -7.254700 18.242732 -13.653645 -25.879409 11.563689 4.622858 0.000000 0.000000 0.000000 13.903897 1.327964 -2.932440 12.217336 -17.712665 2.842085 1.334065 -4.476223 -4.237895 -55.262822 -6.180459 -5.149089 47.757342 -17.116075 29.234845 0.000000 0.000000 0.000000 14.663265 1.137175 -3.046189 16.988210 27.380688 -3.832282 0.282401 4.390075 2.676926 -32.498648 0.319543 7.781269 -43.125398 46.933590 32.311692 0.000000 0.000000 0.000000 
0.090831 40.700714 1.504219 0.000000 0.000000 0.000000 8.092060 -40.421005 4.105651 -84.096253 -20.282515 27.111029 70.614225 -1.945765 3.989128 17.438404 3.949690 -1.535714 -2.173482 1.940441 -2.317056 0.000000 0.000000 0.000000 8.087633 -44.747759 3.653475 -113.292013 -40.317080 -0.256681 119.335658 28.470488 -16.312763 45.366058 9.142487 41.372877 8.615531 6.933238 -5.124805 0.000000 0.000000 0.000000 7.586087 -42.034422 3.082114 31.004957 -6.138318 -8.490681 12.719643 1.116278 -3.751318 0.504205 1.291374 1.283675 0.000000 0.000000 0.000000 12.821582 1.082658 -2.653233 -7.179139 18.220204 -13.657951 -25.607190 11.598327 4.670045 0.000000 0.000000 0.000000 13.834586 1.342300 -2.935011 12.021717 -17.517202 2.196650 1.082849 -4.398685 -4.321899 -54.297084 -4.554141 -4.691647 48.004574 -17.727360 29.519268 0.000000 0.000000 0.000000 14.583764 1.143545 -3.050695 16.665855 27.518960 -3.147218 0.270004 4.284137 2.856026 -32.090435 0.140469 7.576986 -42.849489 46.265898 31.826701 0.000000 0.000000 0.000000 
0.069536 40.716698 1.507366 0.000000 0.000000 0.000000 8.185058 -40.338629 4.315407 -83.790609 -20.282585 27.013183 70.304776 -2.154823 3.768259 16.948416 4.313238 -1.643916 -2.199111 1.915410 -2.268772 0.000000 0.000000 0.000000 8.203055 -44.735772 3.877063 -113.097482 -40.107687 -0.534195 119.219750 28.669494 -16.188365 44.908204 9.114563 41.242140 8.418389 6.963120 -5.241449 0.000000 0.000000 0.000000 7.551180 -42.047239 3.211720 30.867978 -6.145552 -8.469310 12.656318 1.123987 -3.751560 0.520874 1.339795 1.265608 0.000000 0.000000 0.000000 12.741161 1.101650 -2.678168 -7.140500 18.178815 -13.653780 -25.333074 11.575602 4.751964 0.000000 0.000000 0.000000 13.752124 1.355173 -2.933026 11.808340 -17.229407 1.467751 0.746669 -4.275395 -4.337765 -53.468159 -2.713289 -4.215322 48.317595 -18.330939 29.858169 0.000000 0.000000 0.000000 14.484564 1.152341 -3.035382 16.358974 27.554218 -2.458753 0.192577 4.187247 2.975926 -31.717503 -0.038229 7.426145 -42.564776 45.614278 31.376964 0.000000 0.000000 0.000000 
